# xmcd
#
# Track frame offsets:
#  150
#  55522
#  95549
#  122459
#  129462
#  178865
#  214913
#  259278
#  283647
#
# Disc length: 4153 seconds
#
# Revision: 0
# Processed by: cddbd v1.5.2PL0 Copyright (c) Steve Scherf et al.
# Submitted via: Collectorz.com Music Collector 6.9
#
DISCID=82103709
DTITLE=Keith Jarrett - Radiance [CD 1)
DYEAR=2002
DGENRE=Jazz
TTITLE0=Part 1
TTITLE1=Part 2
TTITLE2=Part 3
TTITLE3=Part 4
TTITLE4=Part 5
TTITLE5=Part 6
TTITLE6=Part 7
TTITLE7=Part 8
TTITLE8=Part 9
EXTD=
EXTT0=
EXTT1=
EXTT2=
EXTT3=
EXTT4=
EXTT5=
EXTT6=
EXTT7=
EXTT8=
PLAYORDER=
